# xmcd
#
# Track frame offsets:
#	150
#	18312
#	42687
#	60262
#	76147
#	88540
#	98882
#	111960
#	122372
#	144592
#	163840
#	180067
#	191685
#
# Disc length: 2626 seconds
#
# Revision: 0
# Processed by: cddbd v1.4PL0 Copyright (c) Steve Scherf et al.
# Submitted via: EasyCDDAExtractor 4.6.9.1
#
DISCID=9d0a400d
DTITLE=Lynwood Lunsford - Pick Along
DYEAR=1999
DGENRE=Bluegrass
TTITLE0=Pick Along
TTITLE1=Kansas City Railroad
TTITLE2=Put My Little Shoes Away
TTITLE3=Sally Ann
TTITLE4=The World Is Waiting For The Sunrise
TTITLE5=Leaving Town
TTITLE6=Virginia Jazz
TTITLE7=Sweet Dixie
TTITLE8=John Henry Blues
TTITLE9=You Are My Sunshine
TTITLE10=Thunder Road
TTITLE11=Red River Valley
TTITLE12=Star Spangled Banner
EXTD=
EXTT0=
EXTT1=
EXTT2=
EXTT3=
EXTT4=
EXTT5=
EXTT6=
EXTT7=
EXTT8=
EXTT9=
EXTT10=
EXTT11=
EXTT12=
PLAYORDER=
